#!OML:ASF F:\VICON\USERDATA\INSTALL\rory3\rory3.ASF
:FULLY-SPECIFIED
:DEGREES
2094
root 1.1081 14.4268 -0.801248 7.01043 -13.3594 25.9488
lowerback 27.0896 -1.67932 16.9592
upperback 5.59266 3.92799 15.4689
thorax -8.19688 1.49848 6.403
lowerneck -12.0917 -1.93487 -2.40795
upperneck 15.3505 -4.67498 14.1289
head 7.11177 -1.17763 4.56108
rclavicle -6.36111e-015 -1.11319e-013
rhumerus 18.3065 -42.0704 -22.899
rradius 63.9977
rwrist 27.0472
rhand 17.8536 3.53209
rfingers 7.12502
rthumb 42.5306 -20.8776
lclavicle -6.36111e-015 -1.11319e-013
lhumerus -78.1844 -49.7997 116.047
lradius 99.4054
lwrist 31.7063
lhand 22.6295 23.9213
lfingers 7.12502
lthumb 46.9763 46.598
rfemur -49.5372 11.4361 -20.7034
rtibia 67.8305
rfoot -24.733 -12.4614
rtoes -29.9541
lfemur -34.5828 10.2482 -49.4615
ltibia 47.0715
lfoot -17.9887 -3.66925
ltoes -3.98224
2095
root 1.10514 14.4414 -0.802141 6.82495 -13.4442 26.1484
lowerback 27.0392 -1.59 16.4896
upperback 5.62527 3.8855 15.3787
thorax -8.17814 1.49361 6.54327
lowerneck -12.0446 -1.94597 -2.39955
upperneck 15.3742 -4.6873 14.0912
head 7.11068 -1.18679 4.54625
rclavicle -1.59028e-014 -6.20208e-014
rhumerus 18.4991 -42.1451 -23.1572
rradius 63.9194
rwrist 27.2053
rhand 17.9612 3.66383
rfingers 7.12502
rthumb 42.6313 -20.7111
lclavicle -1.59028e-014 -6.20208e-014
lhumerus -78.2102 -49.6666 115.986
lradius 99.4394
lwrist 31.6632
lhand 22.7525 24.0169
lfingers 7.12502
lthumb 47.0901 46.6433
rfemur -49.3344 11.4884 -20.9137
rtibia 67.6487
rfoot -24.885 -12.0555
rtoes -29.3855
lfemur -34.2128 10.4221 -49.6453
ltibia 46.6123
lfoot -17.8319 -3.70362
ltoes -3.7743
2096
root 1.10225 14.4529 -0.800626 6.56955 -13.0904 26.6418
lowerback 26.9085 -1.70094 16.0687
upperback 5.52939 3.61648 15.2028
thorax -8.2489 1.38067 6.64136
lowerneck -11.9762 -1.93911 -2.46598
upperneck 15.5017 -4.68636 14.1174
head 7.14086 -1.18538 4.56949
rclavicle 2.54444e-014 5.88403e-014
rhumerus 18.5334 -42.0057 -23.2111
rradius 63.8933
rwrist 27.1686
rhand 17.9509 3.57988
rfingers 7.12502
rthumb 42.6217 -20.7984
lclavicle 2.54444e-014 5.88403e-014
lhumerus -78.2614 -49.441 115.947
lradius 99.4198
lwrist 31.6896
lhand 22.8035 24.1167
lfingers 7.12502
lthumb 47.1373 46.7222
rfemur -48.7485 11.1821 -21.3163
rtibia 67.4718
rfoot -25.0173 -11.7958
rtoes -29.2006
lfemur -33.6128 10.2434 -50.0616
ltibia 46.158
lfoot -17.6812 -3.72099
ltoes -4.01809
2097
root 1.09779 14.4722 -0.800271 6.48166 -12.4403 26.5426
lowerback 26.7085 -1.94878 16.323
upperback 5.40363 3.35517 15.1371
thorax -8.26323 1.25582 6.52812
lowerneck -11.8666 -1.91936 -2.51908
upperneck 15.3773 -4.66529 14.3026
head 7.08542 -1.17311 4.64001
rclavicle 1.90833e-014 7.31528e-014
rhumerus 18.5159 -42.0737 -23.3058
rradius 63.8846
rwrist 27.2745
rhand 17.9139 3.68887
rfingers 7.12502
rthumb 42.587 -20.7014
lclavicle 1.90833e-014 7.31528e-014
lhumerus -78.3245 -49.3951 115.935
lradius 99.4103
lwrist 31.7549
lhand 22.7174 24.0849
lfingers 7.12502
lthumb 47.0577 46.7257
rfemur -47.9928 10.9264 -21.022
rtibia 67.2593
rfoot -25.1954 -11.6348
rtoes -28.3908
lfemur -33.0913 9.78964 -49.8116
ltibia 45.8427
lfoot -17.5308 -3.71699
ltoes -3.98662
2098
root 1.09109 14.4901 -0.805429 6.40709 -12.2503 25.8987
lowerback 26.6846 -2.00068 16.6909
upperback 5.45127 3.37958 15.2428
thorax -8.17264 1.26253 6.45656
lowerneck -11.8938 -1.93289 -2.59638
upperneck 15.2463 -4.68021 14.4602
head 7.05582 -1.17647 4.70176
rclavicle 0 -9.06458e-014
rhumerus 18.4654 -42.2238 -23.3207
rradius 63.887
rwrist 27.3015
rhand 17.922 3.80868
rfingers 7.12502
rthumb 42.5946 -20.579
lclavicle 0 -9.06458e-014
lhumerus -78.2712 -49.4625 115.89
lradius 99.4104
lwrist 31.8445
lhand 22.5537 23.9884
lfingers 7.12502
lthumb 46.9062 46.6959
rfemur -47.6173 11.2394 -20.2167
rtibia 67.0269
rfoot -25.2123 -11.6035
rtoes -27.505
lfemur -32.8234 9.72563 -49.0339
ltibia 45.663
lfoot -17.4811 -3.65777
ltoes -3.73122
2099
root 1.08616 14.5025 -0.812432 6.31305 -12.3173 25.5451
lowerback 26.666 -1.90845 16.6262
upperback 5.53552 3.45729 15.3144
thorax -8.08402 1.3051 6.54045
lowerneck -11.9494 -1.97882 -2.60996
upperneck 15.242 -4.73346 14.4252
head 7.0688 -1.20297 4.68699
rclavicle -3.49861e-014 -5.24792e-014
rhumerus 18.4543 -42.2507 -23.2866
rradius 63.8938
rwrist 27.2447
rhand 17.948 3.7786
rfingers 7.12502
rthumb 42.6189 -20.6006
lclavicle -3.49861e-014 -5.24792e-014
lhumerus -78.1576 -49.4107 115.816
lradius 99.391
lwrist 31.9103
lhand 22.549 23.9238
lfingers 7.12502
lthumb 46.9019 46.6331
rfemur -47.4825 11.5387 -19.794
rtibia 66.793
rfoot -25.0821 -11.6307
rtoes -27.1398
lfemur -32.6846 9.83314 -48.6171
ltibia 45.524
lfoot -17.4353 -3.57061
ltoes -3.71265
2100
root 1.08513 14.5195 -0.815186 6.27823 -12.2284 25.2083
lowerback 26.6002 -1.90817 16.7205
upperback 5.5211 3.47049 15.3336
thorax -8.06281 1.3099 6.51082
lowerneck -12.086 -2.05889 -2.45736
upperneck 15.4554 -4.86214 14.2081
head 7.16526 -1.25733 4.5799
rclavicle 3.18055e-015 -6.36111e-015
rhumerus 18.3666 -42.2081 -23.2012
rradius 63.8663
rwrist 27.1829
rhand 17.8916 3.76001
rfingers 7.12502
rthumb 42.5661 -20.6375
lclavicle 3.18055e-015 -6.36111e-015
lhumerus -78.1404 -49.3128 115.788
lradius 99.3786
lwrist 31.8747
lhand 22.7323 24.0001
lfingers 7.12502
lthumb 47.0714 46.6348
rfemur -47.1972 11.6602 -19.3766
rtibia 66.5269
rfoot -24.976 -11.6944
rtoes -26.9906
lfemur -32.4828 9.7867 -48.2331
ltibia 45.3501
lfoot -17.3516 -3.52818
ltoes -3.66868
2101
root 1.08465 14.5361 -0.817479 6.15155 -12.1234 25.1793
lowerback 26.5602 -1.87549 16.5103
upperback 5.49777 3.45068 15.2975
thorax -8.08878 1.306 6.57928
lowerneck -12.2557 -2.1052 -2.2955
upperneck 15.7049 -4.94969 13.9779
head 7.2747 -1.29042 4.47146
rclavicle -6.36111e-014 -1.65389e-013
rhumerus 18.2746 -42.2021 -23.1439
rradius 63.8355
rwrist 27.291
rhand 17.9584 3.73792
rfingers 7.12502
rthumb 42.6286 -20.638
lclavicle -6.36111e-014 -1.65389e-013
lhumerus -78.2214 -49.2696 115.841
lradius 99.3848
lwrist 31.8299
lhand 22.8058 24.0707
lfingers 7.12502
lthumb 47.1394 46.6752
rfemur -46.8541 11.6661 -19.2753
rtibia 66.2701
rfoot -24.8772 -11.7047
rtoes -27.0593
lfemur -32.1664 9.72571 -48.1564
ltibia 45.0914
lfoot -17.2489 -3.51042
ltoes -3.52317
2102
root 1.08382 14.5484 -0.821454 6.04734 -12.0662 25.3037
lowerback 26.4698 -1.78185 16.1257
upperback 5.48939 3.44453 15.2532
thorax -8.09186 1.31474 6.71923
lowerneck -12.2076 -2.11432 -2.35329
upperneck 15.5944 -4.93941 14.001
head 7.23106 -1.29363 4.48766
rclavicle 6.67916e-014 2.8625e-014
rhumerus 18.1202 -42.1477 -22.9688
rradius 63.8834
rwrist 27.3781
rhand 18.0469 3.57209
rfingers 7.12502
rthumb 42.7115 -20.775
lclavicle 6.67916e-014 2.8625e-014
lhumerus -78.3003 -49.2552 115.906
lradius 99.3858
lwrist 31.8278
lhand 22.9843 24.1488
lfingers 7.12502
lthumb 47.3044 46.6797
rfemur -46.6138 11.612 -19.3717
rtibia 66.0137
rfoot -24.7649 -11.6285
rtoes -27.0652
lfemur -31.9308 9.67019 -48.2585
ltibia 44.8427
lfoot -17.1974 -3.45512
ltoes -3.74316
